<svg width="189" height="189" viewBox="0 0 189 189" fill="none" xmlns="http://www.w3.org/2000/svg">
<circle cx="94.5" cy="94.5" r="42" stroke="#CBEEF3"/>
<circle cx="94.5" cy="94.5" r="26" stroke="#CBEEF3"/>
<circle cx="94.5" cy="94.5" r="61" stroke="#CBEEF3" stroke-opacity="0.3"/>
<circle cx="94.5" cy="94.5" r="80" stroke="#CBEEF3" stroke-opacity="0.1"/>
<circle cx="94.5" cy="94.5" r="94" stroke="#CBEEF3" stroke-opacity="0.07"/>
<g clip-path="url(#clip0_7_323)">
<path d="M109.349 79C102.979 78.828 96.0427 82.076 91.4707 87.2214C87.1027 87.2987 83.0067 89.024 79.8654 92.164C79.7777 92.2515 79.7161 92.3616 79.6875 92.4821C79.6589 92.6027 79.6644 92.7287 79.7034 92.8463C79.7425 92.9638 79.8135 93.0682 79.9085 93.1476C80.0035 93.227 80.1188 93.2784 80.2414 93.296L85.3761 94.032L84.7414 94.744C84.6279 94.8712 84.5674 95.037 84.5724 95.2073C84.5773 95.3777 84.6474 95.5397 84.7681 95.66L90.3147 101.207C90.4408 101.33 90.6104 101.399 90.787 101.399C90.9636 101.399 91.133 101.329 91.2587 101.205C91.3837 101.08 91.4539 100.911 91.4539 100.734C91.4539 100.557 91.3837 100.388 91.2587 100.263L86.1587 95.1627C88.168 92.911 90.1769 90.6591 92.1854 88.4067C93.5187 87.3814 98.9374 80.5027 108.669 80.332C108.597 84.1827 107.191 88.4227 104.753 92.0707C104.655 92.2178 104.619 92.3979 104.654 92.5715C104.688 92.745 104.79 92.8977 104.937 92.996C105.084 93.0943 105.265 93.1302 105.438 93.0957C105.612 93.0612 105.764 92.9591 105.863 92.812C108.624 88.6734 110.092 84 110 79.652C109.996 79.4805 109.927 79.317 109.805 79.1956C109.684 79.0742 109.521 79.0041 109.349 79ZM81.8174 92.1734C84.1876 90.1672 87.1123 88.9301 90.2027 88.6267L86.4441 92.836L81.8174 92.1734Z" fill="#273765"/>
<path d="M98.4866 90.5133C97.8623 89.8876 97.5117 89.0398 97.5117 88.156C97.5117 87.2721 97.8623 86.4243 98.4866 85.7986C99.7426 84.54 101.939 84.5386 103.2 85.7986C103.824 86.4243 104.175 87.2721 104.175 88.156C104.175 89.0398 103.824 89.8876 103.2 90.5133C101.893 91.8186 99.7866 91.8146 98.4866 90.5133ZM99.4293 86.7426C99.0546 87.1181 98.8442 87.6269 98.8442 88.1573C98.8442 88.6877 99.0546 89.1965 99.4293 89.572C100.183 90.3266 101.501 90.328 102.257 89.572C102.632 89.1965 102.842 88.6877 102.842 88.1573C102.842 87.6269 102.632 87.1181 102.257 86.7426C102.072 86.5567 101.851 86.4091 101.609 86.3084C101.366 86.2078 101.106 86.1559 100.843 86.1559C100.581 86.1559 100.321 86.2078 100.078 86.3084C99.8352 86.4091 99.6148 86.5567 99.4293 86.7426ZM78.028 110.141C78.2453 109.412 80.204 102.967 81.6306 101.54C83.2373 99.9333 85.852 99.9333 87.4586 101.54C89.0653 103.147 89.0653 105.761 87.4586 107.368C86.032 108.795 79.588 110.753 78.8573 110.972C78.742 111.006 78.6195 111.009 78.5028 110.979C78.3862 110.95 78.2797 110.889 78.1946 110.804C78.1096 110.719 78.0492 110.612 78.0199 110.496C77.9905 110.379 77.9933 110.257 78.028 110.141ZM82.5746 102.483C81.8053 103.253 80.5253 106.695 79.6813 109.319C82.3053 108.473 85.748 107.193 86.5173 106.424C87.0391 105.901 87.3322 105.192 87.3322 104.453C87.3322 103.714 87.0391 103.005 86.5173 102.481C85.9936 101.96 85.2847 101.667 84.5457 101.668C83.8067 101.668 83.098 101.961 82.5746 102.483Z" fill="#273765"/>
<path d="M101.333 111C96.5547 111 92.6667 107.112 92.6667 102.333C92.6667 97.5546 96.5547 93.6666 101.333 93.6666C106.112 93.6666 110 97.5546 110 102.333C110 107.112 106.112 111 101.333 111Z" fill="#F43722"/>
<path d="M99.9999 105.667C99.8231 105.666 99.6535 105.596 99.5279 105.472L96.8612 102.805C96.7398 102.68 96.6726 102.511 96.6741 102.336C96.6756 102.162 96.7457 101.994 96.8693 101.871C96.9929 101.747 97.1601 101.677 97.3349 101.676C97.5097 101.674 97.6781 101.741 97.8039 101.863L99.9665 104.025L104.164 99.228C104.221 99.1607 104.291 99.1054 104.37 99.0654C104.449 99.0254 104.535 99.0015 104.623 98.9951C104.711 98.9886 104.8 98.9997 104.883 99.0278C104.967 99.0559 105.045 99.1003 105.111 99.1586C105.177 99.2168 105.232 99.2877 105.271 99.3671C105.309 99.4465 105.332 99.5328 105.337 99.621C105.342 99.7092 105.33 99.7976 105.301 99.8809C105.271 99.9643 105.226 100.041 105.167 100.107L100.5 105.44C100.44 105.509 100.367 105.564 100.284 105.603C100.202 105.642 100.112 105.664 100.021 105.667H99.9999Z" fill="white"/>
</g>
<defs>
<clipPath id="clip0_7_323">
<rect width="32" height="32" fill="white" transform="translate(78 79)"/>
</clipPath>
</defs>
</svg>
