<svg width="189" height="189" viewBox="0 0 189 189" fill="none" xmlns="http://www.w3.org/2000/svg">
<circle cx="94.5" cy="94.5" r="42" stroke="#CBEEF3"/>
<circle cx="94.5" cy="94.5" r="26" stroke="#CBEEF3"/>
<circle cx="94.5" cy="94.5" r="61" stroke="#CBEEF3" stroke-opacity="0.3"/>
<circle cx="94.5" cy="94.5" r="80" stroke="#CBEEF3" stroke-opacity="0.1"/>
<circle cx="94.5" cy="94.5" r="94" stroke="#CBEEF3" stroke-opacity="0.07"/>
<g clip-path="url(#clip0_10_42)">
<path d="M82.25 95V84.75C82.25 83.9 82.95 83.25 83.75 83.25H86C85.85 82.95 85.75 82.6 85.75 82.25C85.75 80.95 86.8 79.9 88.15 79.9C89.45 79.9 90.5 80.95 90.5 82.25C90.5 82.6 90.4 82.95 90.25 83.25H94M94 83.25V89.25M94 83.25H97.7001C97.5501 83.55 97.5 83.9 97.5 84.25C97.5 85.55 98.5501 86.6 99.85 86.6C101.15 86.6 102.25 85.55 102.25 84.25C102.25 83.9 102.15 83.55 102 83.25H104.2C105.05 83.25 105.7 83.95 105.7 84.75V87C106 86.85 106.35 86.75 106.7 86.75C108 86.75 109.05 87.8 109.05 89.1C109.05 90.4 108 91.45 106.7 91.45C106.35 91.45 106 91.35 105.7 91.2V95H102.05C102.15 95.25 102.25 95.6 102.25 95.9C102.25 97.2 101.2 98.25 99.85 98.25C99.1 98.25 98.4001 97.9 97.9501 97.3M105.75 95V105.25C105.75 106.1 105.05 106.75 104.25 106.75H102C102.15 107.05 102.25 107.4 102.25 107.75C102.25 109.05 101.2 110.1 99.85 110.1C98.5501 110.1 97.5 109.05 97.5 107.75C97.5 107.4 97.6 107.05 97.75 106.75H94M94 106.75V100.75M94 106.75H90.3C90.45 106.45 90.55 106.1 90.55 105.75C90.55 104.45 89.5 103.4 88.2 103.4C86.9 103.4 85.85 104.45 85.85 105.75C85.85 106.1 85.95 106.45 86.1 106.75H83.9C83.05 106.75 82.4 106.05 82.4 105.25V103C82.1 103.15 81.75 103.25 81.4 103.25C80.1 103.25 79.05 102.2 79.05 100.9C79.05 99.6 80.1 98.55 81.4 98.55C81.75 98.55 82.1 98.65 82.4 98.8V95H86.1C86 94.7 85.9 94.4 85.9 94.1C85.9 92.8 86.95 91.75 88.25 91.75C89 91.75 89.7 92.1 90.15 92.65" stroke="#273765" stroke-width="1.5" stroke-miterlimit="10" stroke-linecap="round" stroke-linejoin="round"/>
<path d="M99.7 94.25V95.8L98.5 95.95C98.4 96.55 98.15 97.05 97.85 97.55L98.55 98.5L97.5 99.6L96.55 98.9C96.05 99.2 95.55 99.45 94.95 99.55L94.8 100.75H93.25L93.1 99.55C92.5 99.45 92 99.2 91.5 98.9L90.5 99.6L89.4 98.5L90.1 97.55C89.8 97.05 89.55 96.55 89.45 95.95L88.25 95.8V94.25L89.45 94.1C89.55 93.5 89.8 93 90.1 92.5L89.4 91.5L90.5 90.4L91.45 91.1C91.95 90.8 92.45 90.55 93.05 90.45L93.2 89.25H94.75L94.9 90.45C95.5 90.55 96 90.8 96.5 91.1L97.45 90.4L98.55 91.5L97.85 92.45C98.15 92.95 98.4 93.45 98.5 94.05L99.7 94.25Z" fill="#F43722"/>
<path d="M95.8 95.35C96.05 94.05 94.95 92.95 93.65 93.2C92.95 93.35 92.35 93.9 92.2 94.65C91.95 95.95 93.05 97.05 94.35 96.8C95.1 96.65 95.65 96.1 95.8 95.35Z" fill="white"/>
</g>
<defs>
<clipPath id="clip0_10_42">
<rect width="32" height="32" fill="white" transform="translate(78 79)"/>
</clipPath>
</defs>
</svg>
